<svg width="56" height="40" viewBox="0 0 56 40" fill="none" xmlns="http://www.w3.org/2000/svg">
<g clip-path="url(#clip0_0_5786)">
<path d="M0 39.889L1.90854 34.4967H3.3426L5.07701 39.889H3.63535L2.34423 35.4704H2.91451L1.4333 39.889H0ZM1.30708 37.7591H3.56463V39.0817H1.30708V37.7591Z" fill="#493083"/>
<path d="M8.48349 40C7.91321 40 7.42201 39.8814 7.00989 39.6435C6.59777 39.4056 6.28145 39.0772 6.05942 38.6576C5.83739 38.238 5.72638 37.7508 5.72638 37.1966C5.72638 36.7847 5.79253 36.4076 5.92408 36.0641C6.05638 35.7212 6.24343 35.424 6.48675 35.1732C6.72931 34.9224 7.01978 34.73 7.35814 34.5955C7.69575 34.461 8.07137 34.3933 8.48273 34.3933C9.12677 34.3933 9.66055 34.54 10.0826 34.8327C10.5053 35.1253 10.811 35.5601 11.0011 36.1355L9.73355 36.6737C9.61189 36.3886 9.45069 36.1697 9.25071 36.0162C9.04997 35.8634 8.79373 35.7866 8.48273 35.7866C8.22953 35.7866 8.00446 35.8421 7.8098 35.9531C7.61439 36.0641 7.46231 36.2252 7.35434 36.4358C7.24637 36.6471 7.19162 36.9002 7.19162 37.1959C7.19162 37.4916 7.24561 37.7447 7.35434 37.956C7.46231 38.1673 7.61439 38.327 7.8098 38.4349C8.00522 38.5428 8.22953 38.5976 8.48273 38.5976C8.79449 38.5976 9.04997 38.5223 9.25071 38.3718C9.45145 38.2213 9.61265 38.0039 9.73355 37.7189L11.0011 38.257C10.811 38.8324 10.5046 39.2665 10.0826 39.5599C9.65979 39.8525 9.12677 39.9992 8.48273 39.9992L8.48349 40Z" fill="#493083"/>
<path d="M14.7011 40C14.1308 40 13.6396 39.8814 13.2275 39.6435C12.8154 39.4056 12.499 39.0772 12.277 38.6576C12.055 38.238 11.944 37.7508 11.944 37.1966C11.944 36.7847 12.0101 36.4076 12.1417 36.0641C12.274 35.7212 12.461 35.424 12.7043 35.1732C12.9469 34.9224 13.2374 34.73 13.5757 34.5955C13.9133 34.461 14.289 34.3933 14.7003 34.3933C15.3444 34.3933 15.8781 34.54 16.3001 34.8327C16.7229 35.1253 17.0286 35.5601 17.2187 36.1355L15.9511 36.6737C15.8295 36.3886 15.6683 36.1697 15.4683 36.0162C15.2676 35.8634 15.0113 35.7866 14.7003 35.7866C14.4471 35.7866 14.222 35.8421 14.0274 35.9531C13.832 36.0641 13.6799 36.2252 13.5719 36.4358C13.464 36.6471 13.4092 36.9002 13.4092 37.1959C13.4092 37.4916 13.4632 37.7447 13.5719 37.956C13.6799 38.1673 13.832 38.327 14.0274 38.4349C14.2228 38.5428 14.4471 38.5976 14.7003 38.5976C15.0121 38.5976 15.2676 38.5223 15.4683 38.3718C15.669 38.2213 15.8302 38.0039 15.9511 37.7189L17.2187 38.257C17.0286 38.8324 16.7222 39.2665 16.3001 39.5599C15.8774 39.8525 15.3444 39.9992 14.7003 39.9992L14.7011 40Z" fill="#493083"/>
<path d="M19.2321 35.8672L19.81 35.234V39.2566L19.1926 38.52H21.9254V39.8898H18.3767V34.4974H21.9254V35.8672H19.2321ZM19.2557 37.8785V36.5087H21.5049V37.8785H19.2557Z" fill="#493083"/>
<path d="M26.7325 39.889L24.1898 36.2944L24.7281 36.1515V39.889H23.2941V34.4967H24.6331L27.1674 38.0913L26.6291 38.2342V34.4967H28.0707V39.889H26.7317H26.7325Z" fill="#493083"/>
<path d="M29.2592 35.8907V34.4974H33.7583V35.8907H29.2592ZM30.7883 39.889V35.0037H32.2375V39.889H30.7883Z" fill="#493083"/>
<path d="M35.8098 35.8672L36.3877 35.234V39.2566L35.7703 38.52H38.5031V39.8898H34.9544V34.4974H38.5031V35.8672H35.8098ZM35.8334 37.8785V36.5087H38.0826V37.8785H35.8334Z" fill="#493083"/>
<path d="M39.8732 39.889V34.4967H41.8456C42.4319 34.4967 42.9269 34.6039 43.3306 34.8174C43.7344 35.031 44.0424 35.3389 44.2537 35.7402C44.4651 36.1416 44.5708 36.6243 44.5708 37.189C44.5708 37.7538 44.4651 38.238 44.2537 38.6424C44.0424 39.046 43.7336 39.3554 43.3268 39.569C42.92 39.7826 42.4235 39.8898 41.838 39.8898H39.874L39.8732 39.889ZM41.3073 39.1289L40.6815 38.4957H41.727C42.0228 38.4957 42.2722 38.4524 42.4752 38.3649C42.6782 38.2775 42.8341 38.1377 42.9429 37.9454C43.0508 37.753 43.1056 37.5007 43.1056 37.189C43.1056 36.8774 43.0524 36.6265 42.9474 36.4365C42.8417 36.2465 42.6874 36.1081 42.4844 36.0207C42.2813 35.9333 42.0312 35.89 41.7361 35.89H40.6275L41.3088 35.5175V39.1281L41.3073 39.1289Z" fill="#493083"/>
<path d="M48.3484 39.889L50.2569 34.4967H51.691L53.4254 39.889H51.9837L50.6926 35.4704H51.2629L49.7817 39.889H48.3484ZM49.6555 37.7591H51.913V39.0817H49.6555V37.7591Z" fill="#493083"/>
<path d="M56 39.889H54.5659V34.4967H56V39.889Z" fill="#493083"/>
<path d="M41.5613 21.8178C41.5613 21.9045 41.5521 21.9896 41.5483 22.0755C41.4829 23.5631 40.8632 24.986 39.7402 26.0069V26.0054L39.7249 26.0198L39.7037 26.0396C39.4466 26.2699 39.1805 26.4797 38.9091 26.6697C38.1183 27.2216 37.2712 27.61 36.4036 27.8753C35.2372 28.2302 34.0358 28.361 32.9158 28.361C32.2383 28.3625 31.5905 28.3146 31.0019 28.2432C29.7078 28.0858 28.695 27.8114 28.2585 27.6761C28.0897 27.6252 27.9118 27.6252 27.7437 27.6761C27.3712 27.7909 26.5766 28.0068 25.5478 28.1664C24.8224 28.2781 23.9806 28.3617 23.0834 28.3602C21.9626 28.3602 20.7612 28.2302 19.5956 27.8745C18.5546 27.5568 17.5448 27.0604 16.6225 26.3155C16.5123 26.2266 16.4035 26.1353 16.2956 26.0396L16.2598 26.0069C15.0721 24.9268 14.4395 23.3959 14.4387 21.814C14.4387 21.3458 14.495 20.8753 14.6083 20.4116C14.644 20.2672 14.6843 20.1235 14.7307 19.9821C15.32 18.1746 16.4005 15.9383 18.4193 13.9065C18.4619 13.8639 18.5006 13.8251 18.5394 13.7902V13.7871C19.1652 13.1722 19.8381 12.6325 20.546 12.1643C20.5772 12.143 20.6084 12.1202 20.6396 12.0997C20.6837 12.0708 20.7293 12.0457 20.7726 12.0168C22.9678 10.6281 25.4801 9.9295 27.9977 9.9295H28.0015C28.4547 9.9295 28.9079 9.95383 29.3588 9.99867C32.3197 10.2951 35.1939 11.5569 37.4636 13.7909C37.5001 13.8274 37.5381 13.8654 37.5784 13.9057C38.427 14.7578 39.1075 15.6464 39.658 16.5228C40.4199 17.7375 40.9279 18.9317 41.2677 19.9814C41.3172 20.1311 41.3597 20.2832 41.397 20.4352C41.4997 20.8631 41.5498 21.2964 41.5567 21.7274C41.5567 21.757 41.5605 21.7859 41.5605 21.8156L41.5613 21.8178Z" fill="white"/>
<path d="M25.477 20.5066C25.477 21.2249 25.2162 21.8802 24.7904 22.3659C24.3433 21.8482 23.7016 21.5244 22.9899 21.5244C22.2782 21.5244 21.6372 21.8482 21.1893 22.3659C20.7627 21.8802 20.5027 21.2249 20.5027 20.5066C20.5027 19.0168 21.6159 17.812 22.9899 17.812C24.3639 17.812 25.477 19.0168 25.477 20.5066Z" fill="#493083"/>
<path d="M30.5229 20.5066C30.5229 21.2249 30.7837 21.8802 31.2095 22.3659C31.6566 21.8482 32.2984 21.5244 33.0101 21.5244C33.7218 21.5244 34.3628 21.8482 34.8106 22.3659C35.2372 21.8802 35.4973 21.2249 35.4973 20.5066C35.4973 19.0168 34.3841 17.812 33.0101 17.812C31.6361 17.812 30.5229 19.0168 30.5229 20.5066Z" fill="#493083"/>
<path d="M12.2139 19.1658C12.4572 18.4224 12.7385 17.704 13.0663 17.0138C12.915 16.9895 12.7629 16.9789 12.6047 16.9789H12.0618C10.3707 16.9789 9.00055 18.3486 9.00055 20.0391V23.5996C9.00055 25.2901 10.3707 26.6598 12.0618 26.6598H12.6047C12.8374 26.6598 13.0625 26.6355 13.2777 26.5823C11.8086 24.4691 11.3858 21.7221 12.2139 19.1658Z" fill="#493083"/>
<path d="M43.9382 16.9789H43.3953C43.2364 16.9789 43.082 16.9933 42.93 17.0138C43.2577 17.7078 43.5398 18.4262 43.7823 19.1696C44.6134 21.7228 44.1876 24.4699 42.7216 26.583C42.9368 26.6363 43.1619 26.6606 43.3946 26.6606H43.9375C45.6285 26.6606 46.9987 25.2908 46.9987 23.6003V20.0399C46.9987 18.3494 45.6285 16.9796 43.9375 16.9796L43.9382 16.9789Z" fill="#493083"/>
<path d="M42.9459 19.4371C42.2973 17.4327 41.0898 14.9357 38.8277 12.6644L38.7007 12.5375C38.3768 12.2197 38.04 11.9218 37.6955 11.6383C36.4386 10.6022 35.0517 9.79724 33.5933 9.22562C33.4093 9.15417 33.2245 9.08424 33.0382 9.01963C32.9706 8.9953 32.9021 8.97478 32.8337 8.95198C32.6824 8.90181 32.5303 8.8524 32.3775 8.80679C32.2946 8.78171 32.2109 8.75967 32.1281 8.73686C31.9912 8.69886 31.8543 8.66161 31.7167 8.62664C31.6216 8.60308 31.5266 8.58104 31.43 8.55899C31.3061 8.53011 31.1822 8.50426 31.0582 8.47842C30.951 8.45714 30.8438 8.43585 30.7358 8.41685C30.6256 8.39709 30.5161 8.37884 30.4058 8.36212C30.2857 8.34312 30.1655 8.32411 30.0446 8.30815C29.9549 8.29599 29.8652 8.28611 29.7747 8.27623C29.6348 8.26026 29.4956 8.24354 29.3557 8.23062C29.3192 8.22758 29.2827 8.22606 29.2462 8.22302C29.0668 8.20858 28.8881 8.19337 28.7087 8.18577C28.6417 7.81635 28.5756 7.31999 28.5786 6.79323C28.5786 6.57811 28.5885 6.35615 28.6174 6.1418C28.9064 6.22997 29.212 6.27862 29.5291 6.27862C30.3967 6.27862 31.1852 5.92668 31.7524 5.35963C32.3204 4.79258 32.6717 4.00357 32.6717 3.13703C32.6717 2.27049 32.3204 1.48224 31.7524 0.918227C31.1852 0.351174 30.3967 -0.000762939 29.5291 -0.000762939C28.6615 -0.000762939 27.8776 0.351174 27.3096 0.918227C26.7423 1.48224 26.3903 2.27429 26.3903 3.13703C26.3903 3.85231 26.6298 4.51437 27.0351 5.03886C26.8731 5.64544 26.8168 6.24366 26.8168 6.79323C26.8168 7.34279 26.8663 7.81103 26.9263 8.20858C26.8929 8.21086 26.8587 8.21542 26.8252 8.21846C26.6648 8.22986 26.5043 8.24506 26.3447 8.26178C26.2777 8.26939 26.2116 8.27775 26.1447 8.28611C25.9873 8.30511 25.8299 8.32487 25.6725 8.3492C25.6041 8.35908 25.5356 8.372 25.4672 8.3834C25.3113 8.40925 25.1562 8.43509 25.0003 8.46626C24.9342 8.47918 24.8688 8.4959 24.8019 8.50958C24.6452 8.54227 24.4878 8.57648 24.3319 8.61448C24.2863 8.62512 24.2415 8.63957 24.1951 8.65097C23.8742 8.73306 23.5548 8.8258 23.2385 8.92917C23.1731 8.95046 23.1085 8.9687 23.0431 8.9915C22.9275 9.03027 22.8127 9.07512 22.6979 9.11692C22.5922 9.15569 22.4873 9.1937 22.3823 9.23474C22.2744 9.27731 22.1687 9.32368 22.0615 9.36776C21.9512 9.41413 21.8402 9.45974 21.7307 9.50915C21.6281 9.55552 21.5254 9.60416 21.4228 9.65357C21.3117 9.70602 21.2 9.75999 21.0897 9.81624C20.9909 9.86641 20.892 9.91809 20.7939 9.97054C20.6822 10.0306 20.5696 10.0914 20.4594 10.1545C20.3643 10.2085 20.2693 10.264 20.175 10.3202C20.0632 10.3871 19.9514 10.4555 19.8412 10.5262C19.7507 10.5832 19.6595 10.641 19.5697 10.701C19.4572 10.7755 19.3447 10.853 19.2336 10.9306C19.1485 10.9906 19.0633 11.0499 18.9789 11.1122C18.8626 11.1974 18.7485 11.2856 18.6337 11.3753C18.5569 11.4345 18.4794 11.4931 18.4033 11.5539C18.2733 11.6595 18.1471 11.7682 18.0193 11.8785C17.9623 11.9286 17.9037 11.9757 17.8467 12.0274C17.662 12.1916 17.4802 12.3596 17.3023 12.5352L17.2323 12.6051C17.2126 12.6249 17.1913 12.6454 17.1723 12.6644H17.1692C14.914 14.9357 13.7057 17.4327 13.0541 19.4371C12.8009 20.2155 12.6769 21.0182 12.6769 21.814C12.6769 22.9763 12.9514 24.1225 13.4677 25.1631C13.7483 25.7279 14.0943 26.2646 14.5208 26.748C14.6935 26.9441 14.879 27.1326 15.0759 27.312L15.1147 27.347L15.117 27.3493C15.6394 27.8183 16.1906 28.2112 16.7571 28.5442C17.5129 28.9888 18.2961 29.3225 19.0816 29.562C19.3568 29.6456 19.6321 29.7155 19.9073 29.7779C21.0015 30.0279 22.0812 30.1237 23.0857 30.1237C23.2803 30.1237 23.4712 30.1184 23.6598 30.1131C23.6872 30.1115 23.7138 30.1108 23.7419 30.1093C23.9236 30.1017 24.1023 30.0925 24.278 30.0796H24.2802C24.3502 30.0751 24.4202 30.0697 24.4893 30.0644C24.4985 30.0644 24.5061 30.0629 24.5152 30.0621C24.535 30.0621 24.554 30.0583 24.5737 30.0568C24.6992 30.0462 24.8231 30.034 24.9433 30.0211C24.9828 30.0173 25.0216 30.0143 25.0604 30.0097C25.09 30.0067 25.1182 30.0021 25.1478 29.9991C25.2163 29.9907 25.2824 29.9831 25.3501 29.974C25.3569 29.974 25.3638 29.9724 25.3706 29.9709C25.3752 29.9709 25.379 29.9709 25.3828 29.9694C25.5554 29.9466 25.7242 29.9223 25.8862 29.8972C25.9097 29.8934 25.9363 29.8904 25.9584 29.8873C26.023 29.8774 26.0816 29.8653 26.1447 29.8554C26.2108 29.844 26.2762 29.8326 26.3401 29.8212C26.423 29.806 26.5028 29.7908 26.5819 29.7748C26.6617 29.7596 26.7385 29.7436 26.8138 29.7269C26.845 29.7201 26.88 29.7148 26.9096 29.7079C26.9157 29.7064 26.9203 29.7049 26.9256 29.7041C27.032 29.6806 27.1339 29.6578 27.2313 29.635C27.2601 29.6281 27.2898 29.622 27.3187 29.6159C27.3742 29.603 27.4206 29.5893 27.4723 29.5772C27.4791 29.5757 27.4845 29.5734 27.4913 29.5719C27.5955 29.5453 27.6936 29.5209 27.7833 29.4966C27.8608 29.4753 27.9331 29.4556 28.0008 29.4366C28.095 29.4632 28.1969 29.4913 28.3117 29.5217C28.3155 29.5217 28.3193 29.5232 28.3224 29.524C28.4182 29.5498 28.5224 29.5749 28.6319 29.6015C28.6516 29.6068 28.6676 29.6114 28.6881 29.6159C28.6988 29.6182 28.7109 29.6205 28.7216 29.6235C28.8387 29.6517 28.9611 29.679 29.0911 29.7072C29.0911 29.7072 29.0911 29.7072 29.0926 29.7072C29.0957 29.7072 29.0987 29.7072 29.1018 29.7087C29.2113 29.7322 29.3253 29.7558 29.4432 29.7786C29.5086 29.7915 29.5732 29.8045 29.6416 29.8166C29.7412 29.8349 29.8447 29.8523 29.9503 29.8698C29.9823 29.8759 30.0119 29.8812 30.0446 29.8866C30.1252 29.9002 30.2104 29.9116 30.2948 29.9253C30.3146 29.9284 30.3359 29.9306 30.3564 29.9337C30.656 29.9778 30.9746 30.0158 31.3061 30.0462C31.3608 30.0515 31.4163 30.0561 31.4711 30.0621C31.5008 30.0652 31.5327 30.0667 31.5631 30.069C31.9935 30.1024 32.4459 30.1229 32.9143 30.1237C33.1067 30.1237 33.3036 30.1184 33.5021 30.1115C33.5127 30.1115 33.5249 30.1115 33.5355 30.11C33.7142 30.1032 33.8952 30.0925 34.0777 30.0796C34.1073 30.0773 34.1362 30.0743 34.1666 30.072C34.3453 30.0576 34.5263 30.0401 34.708 30.0181C34.7263 30.0158 34.743 30.0143 34.7612 30.012C35.2038 29.9572 35.6532 29.8797 36.1056 29.7748C36.1314 29.7687 36.1565 29.7634 36.1816 29.7573C36.4272 29.6996 36.6721 29.6357 36.9177 29.5612C37.326 29.4366 37.7328 29.2845 38.1373 29.1082C38.2285 29.0679 38.3213 29.0284 38.4125 28.985C38.4772 28.9546 38.5418 28.9212 38.6057 28.8893C38.7022 28.8406 38.7988 28.7935 38.8946 28.741C38.9585 28.7076 39.0224 28.6711 39.0847 28.6346C39.1767 28.5829 39.2695 28.5297 39.3607 28.4742C39.433 28.4302 39.506 28.3845 39.5782 28.3374C39.6177 28.3123 39.6573 28.2888 39.6968 28.2637C39.7295 28.2416 39.763 28.2158 39.7964 28.1938C39.8846 28.1337 39.9721 28.0721 40.0595 28.009C40.0991 27.9794 40.1401 27.9551 40.1797 27.9247C40.2504 27.8722 40.3188 27.8183 40.3872 27.7635C40.5545 27.632 40.7188 27.4944 40.8807 27.3493V27.3477L40.921 27.3128C41.2031 27.0566 41.4525 26.7754 41.686 26.4842C42.7566 25.1533 43.3215 23.5 43.3208 21.8194C43.3208 21.0227 43.1968 20.2201 42.9436 19.4379L42.9459 19.4371ZM28.1574 3.05341C28.1779 2.70452 28.3231 2.39819 28.5589 2.16559C28.8083 1.91247 29.1474 1.76044 29.5306 1.76044C29.9139 1.76044 30.253 1.91171 30.5069 2.16559C30.7571 2.41491 30.9122 2.75393 30.9122 3.13703C30.9122 3.52013 30.7571 3.85915 30.5069 4.11303C30.253 4.36235 29.9154 4.51817 29.5306 4.51817C29.4287 4.51817 29.3299 4.50753 29.2348 4.48625C28.974 4.43 28.7421 4.29622 28.5589 4.11379C28.3057 3.85991 28.1536 3.52241 28.1536 3.13779C28.1536 3.10966 28.1536 3.08154 28.1574 3.05341ZM41.5483 22.0755C41.4829 23.5631 40.8632 24.986 39.7402 26.0069V26.0054L39.725 26.0198L39.7037 26.0396C39.4467 26.2699 39.1805 26.4797 38.9091 26.6697C38.1183 27.2216 37.2712 27.61 36.4036 27.8753C35.2372 28.2302 34.0358 28.361 32.9158 28.361C32.2383 28.3625 31.5905 28.3146 31.0019 28.2432C29.7078 28.0858 28.695 27.8114 28.2585 27.6761C28.0897 27.6252 27.9118 27.6252 27.7437 27.6761C27.3712 27.7909 26.5766 28.0068 25.5478 28.1664C24.8224 28.2781 23.9807 28.3617 23.0834 28.3602C21.9626 28.3602 20.7612 28.2302 19.5956 27.8745C18.5546 27.5568 17.5449 27.0604 16.6225 26.3155C16.5123 26.2266 16.4035 26.1353 16.2956 26.0396L16.2598 26.0069C15.0721 24.9267 14.4395 23.3959 14.4387 21.814C14.4387 21.3458 14.495 20.8753 14.6083 20.4116C14.644 20.2672 14.6843 20.1235 14.7307 19.9821C15.32 18.1746 16.4005 15.9383 18.4193 13.9065C18.4619 13.8639 18.5006 13.8251 18.5394 13.7902V13.7871C19.1652 13.1722 19.8381 12.6325 20.546 12.1643C20.5772 12.143 20.6084 12.1202 20.6396 12.0996C20.6837 12.0708 20.7293 12.0457 20.7726 12.0168C22.9678 10.628 25.4801 9.9295 27.9977 9.9295H28.0015C28.4547 9.9295 28.9079 9.95382 29.3588 9.99867C32.3197 10.2951 35.1939 11.5569 37.4636 13.7909C37.5001 13.8274 37.5381 13.8654 37.5784 13.9057C38.427 14.7578 39.1075 15.6464 39.658 16.5228C40.4199 17.7375 40.9279 18.9316 41.2677 19.9814C41.3172 20.1311 41.3598 20.2831 41.397 20.4352C41.4997 20.8631 41.5499 21.2964 41.5567 21.7274C41.5567 21.757 41.5605 21.7859 41.5605 21.8156C41.5605 21.9022 41.5514 21.9873 41.5476 22.0732L41.5483 22.0755Z" fill="#493083"/>
</g>
<defs>
<clipPath id="clip0_0_5786">
<rect width="56" height="40" fill="white"/>
</clipPath>
</defs>
</svg>
